<svg xmlns="http://www.w3.org/2000/svg" viewBox="0 0 1920 1080" width="1920" height="1080" role="img" aria-label="High quality SE7EN FIT fitness advertisement background">
  <defs>
    <linearGradient id="bg" x1="0" y1="0" x2="1" y2="1">
      <stop offset="0" stop-color="#062714"/>
      <stop offset="0.45" stop-color="#07120d"/>
      <stop offset="1" stop-color="#1f1707"/>
    </linearGradient>
    <radialGradient id="glow" cx="70%" cy="28%" r="55%">
      <stop offset="0" stop-color="#22c55e" stop-opacity="0.45"/>
      <stop offset="0.45" stop-color="#22c55e" stop-opacity="0.12"/>
      <stop offset="1" stop-color="#22c55e" stop-opacity="0"/>
    </radialGradient>
    <linearGradient id="steel" x1="0" y1="0" x2="1" y2="1">
      <stop offset="0" stop-color="#ffffff" stop-opacity="0.35"/>
      <stop offset="1" stop-color="#ffffff" stop-opacity="0.05"/>
    </linearGradient>
    <filter id="blur"><feGaussianBlur stdDeviation="24"/></filter>
  </defs>
  <rect width="1920" height="1080" fill="url(#bg)"/>
  <rect width="1920" height="1080" fill="url(#glow)"/>
  <circle cx="1520" cy="165" r="260" fill="#22c55e" opacity="0.12" filter="url(#blur)"/>
  <circle cx="350" cy="870" r="320" fill="#fbbf24" opacity="0.08" filter="url(#blur)"/>
  <g opacity="0.18" stroke="url(#steel)" stroke-width="10" fill="none">
    <path d="M0 780 C340 600 520 820 860 640 S1390 430 1920 590"/>
    <path d="M0 900 C360 710 560 930 940 740 S1450 550 1920 700"/>
    <path d="M180 0 L720 1080"/>
    <path d="M760 0 L1300 1080"/>
    <path d="M1320 0 L1860 1080"/>
  </g>
  <g transform="translate(1120 210)" opacity="0.94">
    <path d="M180 10 C105 26 70 92 72 178 C75 290 17 312 0 412 C-30 590 112 720 262 715 C425 710 552 558 510 392 C489 306 438 280 441 178 C444 82 384 18 300 8 C258 2 220 2 180 10Z" fill="#2a160f" opacity="0.58"/>
    <path d="M232 88 C185 93 158 139 157 200 C154 294 100 332 96 424 C91 550 168 641 269 638 C374 634 452 535 430 416 C412 319 363 292 364 200 C365 133 318 81 254 87 C247 87 240 87 232 88Z" fill="#f5b17b" opacity="0.35"/>
    <path d="M165 425 C220 455 305 456 361 422 C365 480 344 545 270 559 C200 545 170 486 165 425Z" fill="#ef4444" opacity="0.82"/>
    <path d="M105 318 C56 340 11 376 -34 430" stroke="#e5e7eb" stroke-width="18" stroke-linecap="round" opacity="0.6"/>
    <path d="M432 318 C493 345 544 383 584 438" stroke="#e5e7eb" stroke-width="18" stroke-linecap="round" opacity="0.6"/>
    <circle cx="-58" cy="456" r="40" fill="none" stroke="#94a3b8" stroke-width="14" opacity="0.68"/>
    <circle cx="610" cy="464" r="40" fill="none" stroke="#94a3b8" stroke-width="14" opacity="0.68"/>
  </g>
  <g transform="translate(120 150)">
    <text x="0" y="0" fill="#ffffff" font-family="Inter, Arial, sans-serif" font-size="68" font-weight="900" letter-spacing="-2">SE<tspan fill="#22c55e">7</tspan>EN <tspan fill="#22c55e">FIT</tspan></text>
    <text x="0" y="92" fill="#d1d5db" font-family="Inter, Arial, sans-serif" font-size="34" font-weight="600">Premium fitness offers</text>
    <text x="0" y="148" fill="#9ca3af" font-family="Inter, Arial, sans-serif" font-size="26">High quality 1080p banners for gyms, offers and campaigns.</text>
  </g>
  <g transform="translate(120 820)">
    <rect x="0" y="0" width="280" height="78" rx="30" fill="#ffffff"/>
    <text x="44" y="50" fill="#000000" font-family="Inter, Arial, sans-serif" font-size="28" font-weight="900">Explore</text>
    <path d="M210 30 L232 42 L210 54" fill="none" stroke="#000" stroke-width="8" stroke-linecap="round" stroke-linejoin="round"/>
  </g>
</svg>
